<svg xmlns="http://www.w3.org/2000/svg" xmlns:xlink="http://www.w3.org/1999/xlink" width="500" zoomAndPan="magnify" viewBox="0 0 375 374.999991" height="500" preserveAspectRatio="xMidYMid meet" version="1.0"><defs><clipPath id="3e470fafc8"><path d="M 4.550781 4.550781 L 370.550781 4.550781 L 370.550781 370.550781 L 4.550781 370.550781 Z M 4.550781 4.550781 " clip-rule="nonzero"/></clipPath></defs><g clip-path="url(#3e470fafc8)"><path fill="#000000" d="M 370.445312 187.496094 C 370.445312 288.546875 288.546875 370.445312 187.496094 370.445312 C 86.464844 370.445312 4.550781 288.546875 4.550781 187.496094 C 4.550781 86.464844 86.464844 4.550781 187.496094 4.550781 C 288.546875 4.550781 370.445312 86.464844 370.445312 187.496094 " fill-opacity="1" fill-rule="nonzero"/></g><path fill="#6c8898" d="M 189.605469 257.710938 L 189.605469 212.402344 L 201.558594 212.402344 C 202.71875 212.402344 203.664062 211.4375 203.664062 210.277344 L 203.664062 202.558594 C 203.664062 201.378906 202.71875 200.449219 201.558594 200.449219 C 200.378906 200.449219 199.429688 201.378906 199.429688 202.558594 L 199.429688 208.167969 L 175.5625 208.167969 L 175.5625 202.558594 C 175.5625 201.378906 174.617188 200.449219 173.453125 200.449219 C 172.292969 200.449219 171.347656 201.378906 171.347656 202.558594 L 171.347656 210.277344 C 171.347656 211.4375 172.292969 212.402344 173.453125 212.402344 L 185.371094 212.402344 L 185.371094 257.710938 L 172.757812 257.710938 L 172.757812 256.371094 C 172.757812 250.886719 169.648438 245.917969 164.644531 243.417969 C 147.28125 234.714844 136.488281 217.261719 136.488281 197.824219 C 136.488281 183.351562 142.6875 169.507812 153.480469 159.839844 C 164.433594 150.03125 178.5625 145.53125 193.355469 147.15625 C 217.441406 149.835938 236.359375 169.34375 238.34375 193.554688 C 240.039062 214.582031 228.980469 234.179688 210.152344 243.507812 C 205.34375 245.902344 202.234375 250.9375 202.234375 256.351562 L 202.234375 257.710938 Z M 207.203125 268.464844 L 167.789062 268.464844 L 167.789062 261.945312 L 187.40625 261.945312 C 187.441406 261.945312 187.460938 261.945312 187.480469 261.945312 C 187.515625 261.945312 187.53125 261.945312 187.566406 261.945312 L 207.203125 261.945312 Z M 202.003906 275.523438 L 195.964844 279.417969 L 179.027344 279.417969 L 172.988281 275.523438 L 172.988281 272.683594 L 202.003906 272.683594 Z M 212.027344 247.292969 C 232.410156 237.199219 244.398438 215.957031 242.542969 193.195312 C 240.414062 167.003906 219.921875 145.871094 193.820312 142.976562 C 177.832031 141.1875 162.519531 146.066406 150.65625 156.695312 C 138.972656 167.148438 132.273438 182.15625 132.273438 197.824219 C 132.273438 218.851562 143.957031 237.773438 162.753906 247.1875 C 166.308594 248.972656 168.523438 252.492188 168.523438 256.371094 L 168.523438 257.710938 L 165.683594 257.710938 C 164.519531 257.710938 163.574219 258.65625 163.574219 259.835938 L 163.574219 270.574219 C 163.574219 271.734375 164.519531 272.683594 165.683594 272.683594 L 168.773438 272.683594 L 168.773438 276.664062 C 168.773438 277.398438 169.128906 278.058594 169.738281 278.453125 L 177.257812 283.3125 C 177.597656 283.527344 177.992188 283.652344 178.402344 283.652344 L 196.589844 283.652344 C 197 283.652344 197.394531 283.527344 197.734375 283.3125 L 205.253906 278.453125 C 205.863281 278.058594 206.21875 277.398438 206.21875 276.664062 L 206.21875 272.683594 L 209.3125 272.683594 C 210.472656 272.683594 211.417969 271.734375 211.417969 270.574219 L 211.417969 259.835938 C 211.417969 258.65625 210.472656 257.710938 209.3125 257.710938 L 206.46875 257.710938 L 206.46875 256.351562 C 206.46875 252.527344 208.648438 248.972656 212.027344 247.292969 " fill-opacity="1" fill-rule="nonzero"/><path fill="#6c8898" d="M 169.84375 118.25 L 174.6875 118.25 L 174.6875 138.777344 C 174.6875 139.9375 175.617188 140.882812 176.796875 140.882812 C 177.957031 140.882812 178.902344 139.9375 178.902344 138.777344 L 178.902344 116.140625 C 178.902344 114.960938 177.957031 114.015625 176.796875 114.015625 L 174.1875 114.015625 L 187.675781 96.863281 L 201.144531 114.015625 L 198.574219 114.015625 C 197.414062 114.015625 196.484375 114.960938 196.484375 116.140625 L 196.484375 138.777344 C 196.484375 139.9375 197.414062 140.882812 198.574219 140.882812 C 199.753906 140.882812 200.699219 139.9375 200.699219 138.777344 L 200.699219 118.25 L 205.488281 118.25 C 206.292969 118.25 207.042969 117.785156 207.398438 117.050781 C 207.738281 116.335938 207.648438 115.460938 207.148438 114.835938 L 189.335938 92.164062 C 188.925781 91.644531 188.320312 91.34375 187.675781 91.34375 C 187.03125 91.34375 186.425781 91.644531 186.015625 92.164062 L 168.183594 114.835938 C 167.683594 115.460938 167.59375 116.335938 167.953125 117.050781 C 168.308594 117.785156 169.042969 118.25 169.84375 118.25 " fill-opacity="1" fill-rule="nonzero"/><path fill="#6c8898" d="M 223.980469 150.335938 L 239.988281 134.308594 C 240.378906 133.917969 240.613281 133.382812 240.613281 132.828125 C 240.613281 132.253906 240.378906 131.71875 239.988281 131.328125 L 238.148438 129.484375 L 259.800781 126.894531 L 257.210938 148.550781 L 255.40625 146.746094 C 254.566406 145.921875 253.242188 145.921875 252.421875 146.746094 L 236.394531 162.753906 C 235.574219 163.574219 235.574219 164.914062 236.394531 165.734375 C 236.808594 166.148438 237.359375 166.363281 237.898438 166.363281 C 238.433594 166.363281 238.96875 166.148438 239.378906 165.734375 L 253.90625 151.210938 L 257.300781 154.605469 C 257.871094 155.175781 258.726562 155.390625 259.480469 155.105469 C 260.246094 154.855469 260.800781 154.175781 260.890625 153.371094 L 264.320312 124.734375 C 264.390625 124.089844 264.175781 123.449219 263.714844 123 C 263.265625 122.535156 262.605469 122.304688 261.960938 122.394531 L 233.339844 125.824219 C 232.535156 125.914062 231.859375 126.46875 231.589844 127.21875 C 231.339844 127.984375 231.519531 128.84375 232.109375 129.398438 L 235.519531 132.828125 L 220.996094 147.351562 C 220.171875 148.175781 220.171875 149.515625 220.996094 150.335938 C 221.816406 151.15625 223.140625 151.15625 223.980469 150.335938 " fill-opacity="1" fill-rule="nonzero"/><path fill="#6c8898" d="M 294.300781 197.484375 L 271.628906 179.652344 C 271.003906 179.152344 270.125 179.0625 269.394531 179.421875 C 268.679688 179.777344 268.214844 180.511719 268.214844 181.316406 L 268.214844 186.15625 L 247.667969 186.15625 C 246.507812 186.15625 245.578125 187.085938 245.578125 188.246094 C 245.578125 189.425781 246.507812 190.375 247.667969 190.375 L 270.324219 190.375 C 271.484375 190.375 272.429688 189.425781 272.429688 188.246094 L 272.429688 185.65625 L 289.582031 199.144531 L 272.429688 212.617188 L 272.429688 210.042969 C 272.429688 208.882812 271.484375 207.933594 270.324219 207.933594 L 247.667969 207.933594 C 246.507812 207.933594 245.578125 208.882812 245.578125 210.042969 C 245.578125 211.222656 246.507812 212.167969 247.667969 212.167969 L 268.214844 212.167969 L 268.214844 216.957031 C 268.214844 217.761719 268.679688 218.511719 269.394531 218.851562 C 269.699219 219.011719 270.019531 219.066406 270.324219 219.066406 C 270.789062 219.066406 271.253906 218.921875 271.628906 218.621094 L 294.300781 200.789062 C 294.816406 200.394531 295.121094 199.789062 295.121094 199.144531 C 295.121094 198.503906 294.816406 197.878906 294.300781 197.484375 " fill-opacity="1" fill-rule="nonzero"/><path fill="#6c8898" d="M 259.230469 243.058594 C 258.476562 242.792969 257.621094 243.007812 257.050781 243.558594 L 253.636719 246.992188 L 239.113281 232.464844 C 238.289062 231.644531 236.96875 231.644531 236.128906 232.464844 C 235.304688 233.289062 235.304688 234.609375 236.128906 235.449219 L 252.152344 251.457031 C 252.941406 252.242188 254.332031 252.242188 255.121094 251.457031 L 256.960938 249.617188 L 259.566406 271.289062 L 237.898438 268.679688 L 239.71875 266.855469 C 240.539062 266.035156 240.539062 264.714844 239.71875 263.890625 L 223.710938 247.867188 C 222.890625 247.042969 221.550781 247.042969 220.726562 247.867188 C 219.90625 248.6875 219.90625 250.027344 220.726562 250.847656 L 235.253906 265.375 L 231.839844 268.769531 C 231.269531 269.339844 231.089844 270.199219 231.339844 270.949219 C 231.609375 271.71875 232.285156 272.253906 233.089844 272.359375 L 261.730469 275.789062 C 261.800781 275.789062 261.890625 275.808594 261.980469 275.808594 C 262.535156 275.808594 263.070312 275.574219 263.460938 275.183594 C 263.925781 274.734375 264.160156 274.074219 264.070312 273.433594 L 260.640625 244.8125 C 260.53125 244.007812 259.996094 243.328125 259.230469 243.058594 " fill-opacity="1" fill-rule="nonzero"/><path fill="#6c8898" d="M 151.015625 247.597656 L 135.007812 263.605469 C 134.613281 264 134.382812 264.535156 134.382812 265.105469 C 134.382812 265.660156 134.613281 266.195312 135.007812 266.589844 L 136.847656 268.429688 L 115.195312 271.039062 L 117.785156 249.367188 L 119.589844 251.1875 C 120.410156 252.011719 121.75 252.011719 122.570312 251.1875 L 138.597656 235.164062 C 139.417969 234.339844 139.417969 233.019531 138.597656 232.199219 C 137.777344 231.359375 136.4375 231.359375 135.613281 232.199219 L 121.089844 246.703125 L 117.695312 243.308594 C 117.121094 242.757812 116.265625 242.542969 115.515625 242.808594 C 114.746094 243.078125 114.191406 243.757812 114.105469 244.5625 L 110.671875 273.183594 C 110.601562 273.84375 110.816406 274.484375 111.28125 274.933594 C 111.675781 275.34375 112.210938 275.558594 112.761719 275.558594 C 112.851562 275.558594 112.941406 275.558594 113.015625 275.539062 L 141.652344 272.109375 C 142.457031 272.003906 143.136719 271.46875 143.402344 270.699219 C 143.652344 269.949219 143.476562 269.089844 142.902344 268.519531 L 139.472656 265.105469 L 154 250.582031 C 154.820312 249.757812 154.820312 248.417969 154 247.597656 C 153.175781 246.777344 151.835938 246.777344 151.015625 247.597656 " fill-opacity="1" fill-rule="nonzero"/><path fill="#6c8898" d="M 129.414062 209.667969 C 129.414062 208.507812 128.484375 207.558594 127.304688 207.558594 L 104.671875 207.558594 C 103.507812 207.558594 102.5625 208.507812 102.5625 209.667969 L 102.5625 212.257812 L 85.410156 198.789062 L 102.5625 185.300781 L 102.5625 187.871094 C 102.5625 189.050781 103.507812 189.980469 104.671875 189.980469 L 127.304688 189.980469 C 128.484375 189.980469 129.414062 189.050781 129.414062 187.871094 C 129.414062 186.710938 128.484375 185.765625 127.304688 185.765625 L 106.777344 185.765625 L 106.777344 180.957031 C 106.777344 180.152344 106.3125 179.421875 105.597656 179.0625 C 104.867188 178.707031 103.992188 178.796875 103.367188 179.3125 L 80.695312 197.125 C 80.175781 197.539062 79.871094 198.144531 79.871094 198.789062 C 79.871094 199.429688 80.175781 200.039062 80.695312 200.449219 L 103.367188 218.261719 C 103.742188 218.566406 104.207031 218.726562 104.671875 218.726562 C 104.972656 218.726562 105.296875 218.65625 105.597656 218.511719 C 106.3125 218.15625 106.777344 217.421875 106.777344 216.601562 L 106.777344 211.777344 L 127.304688 211.777344 C 128.484375 211.777344 129.414062 210.828125 129.414062 209.667969 " fill-opacity="1" fill-rule="nonzero"/><path fill="#6c8898" d="M 115.765625 154.875 C 116.515625 155.125 117.375 154.925781 117.945312 154.375 L 121.355469 150.941406 L 135.882812 165.46875 C 136.292969 165.878906 136.828125 166.09375 137.363281 166.09375 C 137.902344 166.09375 138.453125 165.878906 138.867188 165.46875 C 139.6875 164.644531 139.6875 163.304688 138.867188 162.484375 L 122.839844 146.476562 C 122.054688 145.671875 120.660156 145.671875 119.875 146.476562 L 118.035156 148.316406 L 115.425781 126.644531 L 137.097656 129.253906 L 135.273438 131.058594 C 134.453125 131.878906 134.453125 133.21875 135.273438 134.042969 L 151.28125 150.066406 C 152.105469 150.890625 153.445312 150.890625 154.265625 150.066406 C 155.089844 149.226562 155.089844 147.90625 154.265625 147.066406 L 139.757812 132.558594 L 143.152344 129.164062 C 143.726562 128.59375 143.902344 127.734375 143.652344 126.984375 C 143.386719 126.214844 142.707031 125.664062 141.902344 125.574219 L 113.265625 122.144531 C 112.621094 122.070312 111.976562 122.285156 111.53125 122.75 C 111.066406 123.199219 110.851562 123.839844 110.921875 124.484375 L 114.355469 153.121094 C 114.441406 153.925781 114.996094 154.605469 115.765625 154.875 " fill-opacity="1" fill-rule="nonzero"/></svg>