<svg xmlns="http://www.w3.org/2000/svg" xmlns:xlink="http://www.w3.org/1999/xlink" width="500" zoomAndPan="magnify" viewBox="0 0 375 374.999991" height="500" preserveAspectRatio="xMidYMid meet" version="1.0"><defs><g/><clipPath id="d03b33cb50"><path d="M 150.628906 83.648438 L 358.378906 83.648438 L 358.378906 291.398438 L 150.628906 291.398438 Z M 150.628906 83.648438 " clip-rule="nonzero"/></clipPath></defs><rect x="-37.5" width="450" fill="#ffffff" y="-37.499999" height="449.999989" fill-opacity="1"/><rect x="-37.5" width="450" fill="#6c8898" y="-37.499999" height="449.999989" fill-opacity="1"/><g fill="#000000" fill-opacity="1"><g transform="translate(30.507465, 134.249991)"><g><path d="M 19.5 0.5625 C 17.3125 0.5625 15.28125 0.078125 13.40625 -0.890625 C 11.53125 -1.867188 9.894531 -3.21875 8.5 -4.9375 C 7.101562 -6.664062 6.019531 -8.65625 5.25 -10.90625 C 4.476562 -13.15625 4.09375 -15.578125 4.09375 -18.171875 C 4.09375 -20.765625 4.476562 -23.1875 5.25 -25.4375 C 6.019531 -27.6875 7.101562 -29.671875 8.5 -31.390625 C 9.894531 -33.117188 11.53125 -34.46875 13.40625 -35.4375 C 15.28125 -36.414062 17.3125 -36.90625 19.5 -36.90625 C 21.375 -36.875 23.21875 -36.40625 25.03125 -35.5 C 26.84375 -34.59375 28.429688 -33.285156 29.796875 -31.578125 L 28.71875 -30.71875 C 27.457031 -32.21875 26.03125 -33.394531 24.4375 -34.25 C 22.851562 -35.101562 21.207031 -35.53125 19.5 -35.53125 C 17.757812 -35.53125 16.164062 -35.023438 14.71875 -34.015625 C 13.269531 -33.003906 12.003906 -31.660156 10.921875 -29.984375 C 9.847656 -28.316406 9.015625 -26.457031 8.421875 -24.40625 C 7.828125 -22.363281 7.53125 -20.285156 7.53125 -18.171875 C 7.53125 -16.054688 7.828125 -13.972656 8.421875 -11.921875 C 9.015625 -9.878906 9.847656 -8.019531 10.921875 -6.34375 C 12.003906 -4.675781 13.269531 -3.335938 14.71875 -2.328125 C 16.164062 -1.316406 17.757812 -0.8125 19.5 -0.8125 C 21.925781 -0.8125 24.15625 -1.597656 26.1875 -3.171875 C 28.21875 -4.742188 29.796875 -6.722656 30.921875 -9.109375 L 32.203125 -8.546875 C 30.835938 -5.710938 29.035156 -3.492188 26.796875 -1.890625 C 24.554688 -0.285156 22.125 0.53125 19.5 0.5625 Z M 19.5 0.5625 "/></g></g></g><g fill="#000000" fill-opacity="1"><g transform="translate(73.39383, 134.249991)"><g><path d="M 5.125 0 L 5.125 -36.75 L 8.59375 -36.75 L 8.59375 -1.375 L 26.921875 -1.375 L 26.921875 0 Z M 5.125 0 "/></g></g></g><g fill="#f2f9fa" fill-opacity="1"><g transform="translate(112.034803, 134.249991)"><g><path d="M 14.4375 0 L 14.4375 -35.375 L 5.125 -35.375 L 5.125 -36.75 L 27.234375 -36.75 L 27.234375 -35.375 L 17.921875 -35.375 L 17.921875 0 Z M 14.4375 0 "/></g></g></g><g fill="#f2f9fa" fill-opacity="1"><g transform="translate(40.081683, 207.749986)"><g><path d="M 5.125 0 L 5.125 -36.75 L 18.015625 -36.75 C 19.691406 -36.75 21.28125 -36.347656 22.78125 -35.546875 C 24.28125 -34.742188 25.5 -33.644531 26.4375 -32.25 C 27.375 -30.851562 27.84375 -29.210938 27.84375 -27.328125 C 27.84375 -25.523438 27.375 -23.894531 26.4375 -22.4375 C 25.5 -20.988281 24.269531 -19.847656 22.75 -19.015625 C 21.226562 -18.179688 19.617188 -17.765625 17.921875 -17.765625 L 30.5625 0 L 26.765625 0 L 14.078125 -17.765625 L 8.546875 -17.765625 L 8.546875 0 Z M 8.546875 -19.140625 L 17.359375 -19.140625 C 18.648438 -19.140625 19.820312 -19.546875 20.875 -20.359375 C 21.9375 -21.179688 22.78125 -22.222656 23.40625 -23.484375 C 24.039062 -24.753906 24.359375 -26.035156 24.359375 -27.328125 C 24.359375 -28.628906 24.039062 -29.894531 23.40625 -31.125 C 22.78125 -32.351562 21.9375 -33.367188 20.875 -34.171875 C 19.820312 -34.972656 18.648438 -35.375 17.359375 -35.375 L 8.546875 -35.375 Z M 8.546875 -19.140625 "/></g></g></g><g fill="#f2f9fa" fill-opacity="1"><g transform="translate(82.353935, 207.749986)"><g><path d="M 5.125 0 L 5.125 -36.75 L 25.90625 -36.75 L 25.90625 -35.375 L 8.59375 -35.375 L 8.59375 -19.296875 L 22.46875 -19.296875 L 22.46875 -17.921875 L 8.59375 -17.921875 L 8.59375 -1.375 L 26.96875 -1.375 L 26.96875 0 Z M 5.125 0 "/></g></g></g><g fill="#f2f9fa" fill-opacity="1"><g transform="translate(121.043878, 207.749986)"><g><path d="M 5.125 0 L 5.125 -36.75 L 8.59375 -36.75 L 8.59375 0 Z M 5.125 0 "/></g></g></g><g fill="#f2f9fa" fill-opacity="1"><g transform="translate(48.038713, 281.249982)"><g><path d="M 5.125 0 L 5.125 -36.75 L 9.109375 -36.75 L 26.71875 -6.859375 L 26.71875 -36.75 L 28.109375 -36.75 L 28.109375 0 L 26.71875 0 L 26.71875 -0.046875 L 6.5 -34.390625 L 6.5 0 Z M 5.125 0 "/></g></g></g><g fill="#f2f9fa" fill-opacity="1"><g transform="translate(87.854526, 281.249982)"><g><path d="M 19.5 0.5625 C 17.3125 0.5625 15.28125 0.078125 13.40625 -0.890625 C 11.53125 -1.867188 9.894531 -3.21875 8.5 -4.9375 C 7.101562 -6.664062 6.019531 -8.65625 5.25 -10.90625 C 4.476562 -13.15625 4.09375 -15.578125 4.09375 -18.171875 C 4.09375 -20.765625 4.476562 -23.1875 5.25 -25.4375 C 6.019531 -27.6875 7.101562 -29.671875 8.5 -31.390625 C 9.894531 -33.117188 11.53125 -34.46875 13.40625 -35.4375 C 15.28125 -36.414062 17.3125 -36.90625 19.5 -36.90625 C 21.6875 -36.90625 23.71875 -36.414062 25.59375 -35.4375 C 27.46875 -34.46875 29.097656 -33.117188 30.484375 -31.390625 C 31.867188 -29.671875 32.953125 -27.6875 33.734375 -25.4375 C 34.515625 -23.1875 34.90625 -20.765625 34.90625 -18.171875 C 34.90625 -15.578125 34.515625 -13.15625 33.734375 -10.90625 C 32.953125 -8.65625 31.867188 -6.664062 30.484375 -4.9375 C 29.097656 -3.21875 27.46875 -1.867188 25.59375 -0.890625 C 23.71875 0.078125 21.6875 0.5625 19.5 0.5625 Z M 19.5 -0.8125 C 21.207031 -0.8125 22.785156 -1.316406 24.234375 -2.328125 C 25.679688 -3.335938 26.941406 -4.675781 28.015625 -6.34375 C 29.097656 -8.019531 29.9375 -9.890625 30.53125 -11.953125 C 31.125 -14.015625 31.421875 -16.085938 31.421875 -18.171875 C 31.421875 -20.285156 31.125 -22.363281 30.53125 -24.40625 C 29.9375 -26.457031 29.097656 -28.316406 28.015625 -29.984375 C 26.941406 -31.660156 25.679688 -33.003906 24.234375 -34.015625 C 22.785156 -35.023438 21.207031 -35.53125 19.5 -35.53125 C 17.757812 -35.53125 16.164062 -35.023438 14.71875 -34.015625 C 13.269531 -33.003906 12.003906 -31.660156 10.921875 -29.984375 C 9.847656 -28.316406 9.015625 -26.457031 8.421875 -24.40625 C 7.828125 -22.363281 7.53125 -20.285156 7.53125 -18.171875 C 7.53125 -16.085938 7.828125 -14.015625 8.421875 -11.953125 C 9.015625 -9.890625 9.847656 -8.019531 10.921875 -6.34375 C 12.003906 -4.675781 13.269531 -3.335938 14.71875 -2.328125 C 16.164062 -1.316406 17.757812 -0.8125 19.5 -0.8125 Z M 19.5 -0.8125 "/></g></g></g><g clip-path="url(#d03b33cb50)"><path fill="#000000" d="M 358.332031 187.5 C 358.332031 244.859375 311.84375 291.351562 254.480469 291.351562 C 197.128906 291.351562 150.628906 244.859375 150.628906 187.5 C 150.628906 130.148438 197.128906 83.648438 254.480469 83.648438 C 311.84375 83.648438 358.332031 130.148438 358.332031 187.5 " fill-opacity="1" fill-rule="nonzero"/></g><path fill="#6c8898" d="M 255.679688 227.355469 L 255.679688 201.636719 L 262.464844 201.636719 C 263.121094 201.636719 263.660156 201.089844 263.660156 200.429688 L 263.660156 196.050781 C 263.660156 195.378906 263.121094 194.851562 262.464844 194.851562 C 261.792969 194.851562 261.257812 195.378906 261.257812 196.050781 L 261.257812 199.234375 L 247.707031 199.234375 L 247.707031 196.050781 C 247.707031 195.378906 247.167969 194.851562 246.511719 194.851562 C 245.851562 194.851562 245.3125 195.378906 245.3125 196.050781 L 245.3125 200.429688 C 245.3125 201.089844 245.851562 201.636719 246.511719 201.636719 L 253.273438 201.636719 L 253.273438 227.355469 L 246.113281 227.355469 L 246.113281 226.597656 C 246.113281 223.484375 244.351562 220.664062 241.511719 219.242188 C 231.652344 214.304688 225.527344 204.394531 225.527344 193.363281 C 225.527344 185.148438 229.046875 177.285156 235.171875 171.800781 C 241.386719 166.230469 249.410156 163.675781 257.808594 164.597656 C 271.480469 166.121094 282.21875 177.195312 283.34375 190.9375 C 284.308594 202.875 278.03125 214 267.339844 219.292969 C 264.613281 220.652344 262.847656 223.511719 262.847656 226.585938 L 262.847656 227.355469 Z M 265.667969 233.460938 L 243.296875 233.460938 L 243.296875 229.761719 L 254.429688 229.761719 C 254.453125 229.761719 254.460938 229.761719 254.472656 229.761719 C 254.492188 229.761719 254.5 229.761719 254.523438 229.761719 L 265.667969 229.761719 Z M 262.714844 237.46875 L 259.289062 239.679688 L 249.675781 239.679688 L 246.246094 237.46875 L 246.246094 235.855469 L 262.714844 235.855469 Z M 268.40625 221.445312 C 279.976562 215.714844 286.78125 203.65625 285.726562 190.734375 C 284.519531 175.867188 272.890625 163.871094 258.070312 162.226562 C 248.996094 161.210938 240.304688 163.980469 233.570312 170.015625 C 226.9375 175.949219 223.132812 184.46875 223.132812 193.363281 C 223.132812 205.296875 229.765625 216.039062 240.433594 221.382812 C 242.453125 222.398438 243.710938 224.394531 243.710938 226.597656 L 243.710938 227.355469 L 242.097656 227.355469 C 241.4375 227.355469 240.902344 227.894531 240.902344 228.5625 L 240.902344 234.660156 C 240.902344 235.316406 241.4375 235.855469 242.097656 235.855469 L 243.851562 235.855469 L 243.851562 238.117188 C 243.851562 238.53125 244.054688 238.90625 244.402344 239.132812 L 248.671875 241.890625 C 248.863281 242.011719 249.085938 242.082031 249.320312 242.082031 L 259.644531 242.082031 C 259.878906 242.082031 260.101562 242.011719 260.292969 241.890625 L 264.5625 239.132812 C 264.90625 238.90625 265.109375 238.53125 265.109375 238.117188 L 265.109375 235.855469 L 266.863281 235.855469 C 267.523438 235.855469 268.0625 235.316406 268.0625 234.660156 L 268.0625 228.5625 C 268.0625 227.894531 267.523438 227.355469 266.863281 227.355469 L 265.253906 227.355469 L 265.253906 226.585938 C 265.253906 224.414062 266.488281 222.398438 268.40625 221.445312 " fill-opacity="1" fill-rule="nonzero"/><path fill="#6c8898" d="M 244.460938 148.191406 L 247.210938 148.191406 L 247.210938 159.84375 C 247.210938 160.503906 247.738281 161.039062 248.40625 161.039062 C 249.066406 161.039062 249.601562 160.503906 249.601562 159.84375 L 249.601562 146.992188 C 249.601562 146.324219 249.066406 145.785156 248.40625 145.785156 L 246.925781 145.785156 L 254.582031 136.050781 L 262.230469 145.785156 L 260.769531 145.785156 C 260.109375 145.785156 259.582031 146.324219 259.582031 146.992188 L 259.582031 159.84375 C 259.582031 160.503906 260.109375 161.039062 260.769531 161.039062 C 261.4375 161.039062 261.976562 160.503906 261.976562 159.84375 L 261.976562 148.191406 L 264.695312 148.191406 C 265.152344 148.191406 265.578125 147.925781 265.78125 147.511719 C 265.972656 147.105469 265.921875 146.609375 265.636719 146.253906 L 255.527344 133.382812 C 255.292969 133.089844 254.949219 132.917969 254.582031 132.917969 C 254.21875 132.917969 253.875 133.089844 253.640625 133.382812 L 243.519531 146.253906 C 243.234375 146.609375 243.183594 147.105469 243.386719 147.511719 C 243.589844 147.925781 244.003906 148.191406 244.460938 148.191406 " fill-opacity="1" fill-rule="nonzero"/><path fill="#6c8898" d="M 275.191406 166.40625 L 284.277344 157.308594 C 284.5 157.085938 284.632812 156.78125 284.632812 156.464844 C 284.632812 156.140625 284.5 155.835938 284.277344 155.613281 L 283.234375 154.570312 L 295.523438 153.097656 L 294.054688 165.390625 L 293.03125 164.367188 C 292.554688 163.898438 291.804688 163.898438 291.335938 164.367188 L 282.238281 173.453125 C 281.773438 173.917969 281.773438 174.679688 282.238281 175.148438 C 282.472656 175.378906 282.789062 175.5 283.089844 175.5 C 283.394531 175.5 283.699219 175.378906 283.933594 175.148438 L 292.179688 166.902344 L 294.105469 168.828125 C 294.429688 169.152344 294.917969 169.273438 295.34375 169.113281 C 295.777344 168.96875 296.09375 168.585938 296.144531 168.128906 L 298.089844 151.871094 C 298.132812 151.507812 298.011719 151.140625 297.746094 150.886719 C 297.492188 150.625 297.117188 150.492188 296.753906 150.542969 L 280.503906 152.488281 C 280.050781 152.539062 279.664062 152.855469 279.511719 153.28125 C 279.371094 153.71875 279.472656 154.203125 279.804688 154.519531 L 281.742188 156.464844 L 273.496094 164.710938 C 273.03125 165.175781 273.03125 165.9375 273.496094 166.40625 C 273.964844 166.871094 274.714844 166.871094 275.191406 166.40625 " fill-opacity="1" fill-rule="nonzero"/><path fill="#6c8898" d="M 315.109375 193.167969 L 302.238281 183.046875 C 301.882812 182.761719 301.386719 182.710938 300.972656 182.914062 C 300.566406 183.117188 300.300781 183.535156 300.300781 183.992188 L 300.300781 186.738281 L 288.640625 186.738281 C 287.980469 186.738281 287.453125 187.265625 287.453125 187.925781 C 287.453125 188.59375 287.980469 189.132812 288.640625 189.132812 L 301.5 189.132812 C 302.15625 189.132812 302.695312 188.59375 302.695312 187.925781 L 302.695312 186.453125 L 312.429688 194.113281 L 302.695312 201.757812 L 302.695312 200.296875 C 302.695312 199.640625 302.15625 199.101562 301.5 199.101562 L 288.640625 199.101562 C 287.980469 199.101562 287.453125 199.640625 287.453125 200.296875 C 287.453125 200.96875 287.980469 201.503906 288.640625 201.503906 L 300.300781 201.503906 L 300.300781 204.222656 C 300.300781 204.679688 300.566406 205.105469 300.972656 205.296875 C 301.144531 205.390625 301.328125 205.421875 301.5 205.421875 C 301.761719 205.421875 302.027344 205.339844 302.238281 205.167969 L 315.109375 195.046875 C 315.402344 194.820312 315.574219 194.476562 315.574219 194.113281 C 315.574219 193.746094 315.402344 193.390625 315.109375 193.167969 " fill-opacity="1" fill-rule="nonzero"/><path fill="#6c8898" d="M 295.199219 219.039062 C 294.773438 218.886719 294.289062 219.011719 293.964844 219.324219 L 292.027344 221.273438 L 283.78125 213.027344 C 283.316406 212.558594 282.5625 212.558594 282.085938 213.027344 C 281.621094 213.492188 281.621094 214.242188 282.085938 214.71875 L 291.183594 223.808594 C 291.628906 224.253906 292.421875 224.253906 292.867188 223.808594 L 293.914062 222.761719 L 295.394531 235.0625 L 283.089844 233.582031 L 284.125 232.550781 C 284.59375 232.082031 284.59375 231.332031 284.125 230.867188 L 275.039062 221.769531 C 274.574219 221.300781 273.8125 221.300781 273.34375 221.769531 C 272.878906 222.234375 272.878906 222.996094 273.34375 223.460938 L 281.589844 231.707031 L 279.652344 233.632812 C 279.328125 233.957031 279.226562 234.445312 279.371094 234.871094 C 279.523438 235.308594 279.90625 235.613281 280.363281 235.671875 L 296.621094 237.621094 C 296.660156 237.621094 296.710938 237.628906 296.761719 237.628906 C 297.078125 237.628906 297.382812 237.5 297.605469 237.273438 C 297.867188 237.023438 298 236.644531 297.949219 236.28125 L 296 220.035156 C 295.941406 219.578125 295.636719 219.191406 295.199219 219.039062 " fill-opacity="1" fill-rule="nonzero"/><path fill="#6c8898" d="M 233.773438 221.617188 L 224.683594 230.703125 C 224.460938 230.925781 224.332031 231.230469 224.332031 231.554688 C 224.332031 231.871094 224.460938 232.175781 224.683594 232.398438 L 225.730469 233.441406 L 213.4375 234.921875 L 214.910156 222.621094 L 215.933594 223.65625 C 216.398438 224.121094 217.160156 224.121094 217.625 223.65625 L 226.722656 214.558594 C 227.191406 214.089844 227.191406 213.339844 226.722656 212.875 C 226.257812 212.398438 225.496094 212.398438 225.03125 212.875 L 216.785156 221.109375 L 214.859375 219.183594 C 214.535156 218.867188 214.046875 218.746094 213.621094 218.898438 C 213.183594 219.050781 212.871094 219.4375 212.820312 219.890625 L 210.871094 236.140625 C 210.832031 236.515625 210.953125 236.878906 211.21875 237.132812 C 211.441406 237.367188 211.746094 237.488281 212.058594 237.488281 C 212.109375 237.488281 212.160156 237.488281 212.199219 237.476562 L 228.457031 235.53125 C 228.914062 235.46875 229.300781 235.164062 229.453125 234.730469 C 229.59375 234.304688 229.492188 233.816406 229.167969 233.492188 L 227.21875 231.554688 L 235.464844 223.308594 C 235.933594 222.84375 235.933594 222.082031 235.464844 221.617188 C 235 221.148438 234.238281 221.148438 233.773438 221.617188 " fill-opacity="1" fill-rule="nonzero"/><path fill="#6c8898" d="M 221.511719 200.085938 C 221.511719 199.425781 220.984375 198.890625 220.3125 198.890625 L 207.464844 198.890625 C 206.804688 198.890625 206.269531 199.425781 206.269531 200.085938 L 206.269531 201.554688 L 196.53125 193.910156 L 206.269531 186.253906 L 206.269531 187.710938 C 206.269531 188.382812 206.804688 188.910156 207.464844 188.910156 L 220.3125 188.910156 C 220.984375 188.910156 221.511719 188.382812 221.511719 187.710938 C 221.511719 187.054688 220.984375 186.515625 220.3125 186.515625 L 208.660156 186.515625 L 208.660156 183.789062 C 208.660156 183.332031 208.398438 182.914062 207.992188 182.710938 C 207.574219 182.511719 207.078125 182.558594 206.722656 182.855469 L 193.855469 192.964844 C 193.558594 193.199219 193.386719 193.542969 193.386719 193.910156 C 193.386719 194.273438 193.558594 194.617188 193.855469 194.851562 L 206.722656 204.964844 C 206.9375 205.136719 207.199219 205.226562 207.464844 205.226562 C 207.636719 205.226562 207.820312 205.1875 207.992188 205.105469 C 208.398438 204.902344 208.660156 204.488281 208.660156 204.019531 L 208.660156 201.28125 L 220.3125 201.28125 C 220.984375 201.28125 221.511719 200.746094 221.511719 200.085938 " fill-opacity="1" fill-rule="nonzero"/><path fill="#6c8898" d="M 213.761719 168.980469 C 214.1875 169.121094 214.675781 169.011719 215 168.695312 L 216.9375 166.75 L 225.183594 174.996094 C 225.414062 175.226562 225.71875 175.351562 226.023438 175.351562 C 226.328125 175.351562 226.640625 175.226562 226.875 174.996094 C 227.34375 174.527344 227.34375 173.769531 226.875 173.300781 L 217.777344 164.214844 C 217.332031 163.757812 216.542969 163.757812 216.09375 164.214844 L 215.050781 165.257812 L 213.570312 152.957031 L 225.871094 154.4375 L 224.835938 155.460938 C 224.371094 155.929688 224.371094 156.6875 224.835938 157.15625 L 233.925781 166.253906 C 234.390625 166.71875 235.152344 166.71875 235.617188 166.253906 C 236.085938 165.777344 236.085938 165.027344 235.617188 164.546875 L 227.382812 156.3125 L 229.308594 154.386719 C 229.632812 154.0625 229.734375 153.574219 229.59375 153.148438 C 229.441406 152.714844 229.054688 152.398438 228.601562 152.347656 L 212.34375 150.402344 C 211.976562 150.359375 211.613281 150.480469 211.359375 150.746094 C 211.09375 151 210.972656 151.363281 211.015625 151.730469 L 212.960938 167.988281 C 213.011719 168.441406 213.328125 168.828125 213.761719 168.980469 " fill-opacity="1" fill-rule="nonzero"/></svg>